<svg width="24" height="25" viewBox="0 0 24 25" fill="none" xmlns="http://www.w3.org/2000/svg">
<path fill-rule="evenodd" clip-rule="evenodd" d="M1 12.2578C1 6.18268 5.92487 1.25781 12 1.25781C18.0751 1.25781 23 6.18268 23 12.2578C23 18.3329 18.0751 23.2578 12 23.2578C5.92487 23.2578 1 18.3329 1 12.2578Z" fill="#08AD36"/>
<path fill-rule="evenodd" clip-rule="evenodd" d="M17.3087 8.30078C17.6993 8.69131 17.6993 9.32447 17.3087 9.71499L11.1016 16.215C10.7111 16.6055 10.0779 16.6055 9.68742 16.215L6.68742 13.215C6.2969 12.8245 6.2969 12.1913 6.68742 11.8008C7.07795 11.4103 7.71111 11.4103 8.10164 11.8008L10.3945 14.0937L15.8945 8.30078C16.2851 7.91026 16.9182 7.91026 17.3087 8.30078Z" fill="white"/>
</svg>
