<svg width="241" height="70" viewBox="0 0 241 70" fill="none" xmlns="http://www.w3.org/2000/svg">
<path d="M0 35.625V0.3125H10.6562L17.0625 24.4062L23.4062 0.3125H34.0938V35.625H27.4688V7.82812L20.4688 35.625H13.5938L6.60938 7.82812V35.625H0ZM41.1376 6.57812V0.3125H47.9032V6.57812H41.1376ZM41.1376 35.625V10.0469H47.9032V35.625H41.1376ZM77.1394 17.6094L70.4675 18.8125C70.2384 17.4792 69.7279 16.4792 68.9363 15.8125C68.1446 15.1354 67.1134 14.7969 65.8425 14.7969C64.155 14.7969 62.8113 15.3802 61.8113 16.5469C60.8113 17.7031 60.3113 19.6458 60.3113 22.375C60.3113 25.4167 60.8165 27.5625 61.8269 28.8125C62.8477 30.0625 64.2175 30.6875 65.9363 30.6875C67.2279 30.6875 68.28 30.3229 69.0925 29.5938C69.9154 28.8646 70.4936 27.6094 70.8269 25.8281L77.4832 26.9531C76.7852 30.0052 75.4571 32.3125 73.4988 33.875C71.5404 35.4271 68.9154 36.2031 65.6238 36.2031C61.8842 36.2031 58.8998 35.026 56.6707 32.6719C54.4519 30.3073 53.3425 27.0365 53.3425 22.8594C53.3425 18.6406 54.4571 15.3542 56.6863 13C58.9259 10.6458 61.9467 9.46875 65.7488 9.46875C68.8634 9.46875 71.3373 10.1406 73.1707 11.4844C75.0144 12.8177 76.3373 14.8594 77.1394 17.6094ZM88.7452 35.625H81.9796V10.0469H88.2609V13.6875C89.3442 11.9688 90.313 10.8385 91.1671 10.2969C92.0317 9.74479 93.0057 9.46875 94.089 9.46875C95.6307 9.46875 97.1202 9.89583 98.5577 10.75L96.464 16.6406C95.3182 15.901 94.2557 15.5312 93.2765 15.5312C92.3286 15.5312 91.5265 15.7969 90.8702 16.3281C90.214 16.849 89.6932 17.7917 89.3077 19.1562C88.9327 20.5208 88.7452 23.375 88.7452 27.7188V35.625ZM99.8949 22.4688C99.8949 20.2292 100.447 18.0573 101.551 15.9531C102.666 13.849 104.239 12.2448 106.27 11.1406C108.301 10.026 110.572 9.46875 113.082 9.46875C116.947 9.46875 120.114 10.724 122.582 13.2344C125.062 15.7448 126.301 18.9219 126.301 22.7656C126.301 26.6302 125.051 29.8385 122.551 32.3906C120.051 34.9323 116.911 36.2031 113.129 36.2031C110.786 36.2031 108.546 35.6771 106.411 34.625C104.286 33.5625 102.666 32.0052 101.551 29.9531C100.447 27.901 99.8949 25.4062 99.8949 22.4688ZM106.832 22.8281C106.832 25.3698 107.437 27.3177 108.645 28.6719C109.853 30.0156 111.338 30.6875 113.098 30.6875C114.869 30.6875 116.348 30.0156 117.536 28.6719C118.733 27.3177 119.332 25.3542 119.332 22.7812C119.332 20.2812 118.733 18.3594 117.536 17.0156C116.348 15.6615 114.869 14.9844 113.098 14.9844C111.338 14.9844 109.853 15.6615 108.645 17.0156C107.437 18.3594 106.832 20.2969 106.832 22.8281Z" fill="#0070B8"/>
<path d="M154.145 22.9219L161.051 25.1094C159.988 28.9635 158.223 31.8281 155.754 33.7031C153.296 35.5781 150.171 36.5156 146.379 36.5156C141.691 36.5156 137.837 34.9115 134.816 31.7031C131.806 28.4948 130.301 24.1146 130.301 18.5625C130.301 12.6875 131.816 8.125 134.848 4.875C137.879 1.625 141.868 0 146.816 0C151.139 0 154.65 1.27604 157.348 3.82812C158.952 5.33854 160.155 7.50521 160.957 10.3281L153.895 12.0156C153.478 10.1823 152.608 8.73958 151.285 7.6875C149.962 6.625 148.353 6.09375 146.457 6.09375C143.842 6.09375 141.717 7.03125 140.082 8.90625C138.457 10.7812 137.645 13.8229 137.645 18.0312C137.645 22.5 138.447 25.6823 140.051 27.5781C141.655 29.474 143.743 30.4219 146.316 30.4219C148.212 30.4219 149.842 29.8177 151.207 28.6094C152.572 27.401 153.551 25.5052 154.145 22.9219ZM167.19 0.59375H181.315C184.106 0.59375 186.184 0.713542 187.549 0.953125C188.924 1.18229 190.153 1.66667 191.236 2.40625C192.32 3.14583 193.221 4.13021 193.94 5.35938C194.669 6.58854 195.033 7.96354 195.033 9.48438C195.033 11.1406 194.585 12.6615 193.69 14.0469C192.804 15.4219 191.601 16.4531 190.08 17.1406C192.226 17.7656 193.877 18.8333 195.033 20.3438C196.19 21.8542 196.768 23.6302 196.768 25.6719C196.768 27.276 196.393 28.8385 195.643 30.3594C194.903 31.8698 193.887 33.0833 192.596 34C191.304 34.9062 189.71 35.4635 187.815 35.6719C186.627 35.7969 183.757 35.875 179.205 35.9062H167.19V0.59375ZM174.33 6.46875V14.6406H179.002C181.773 14.6406 183.497 14.599 184.174 14.5156C185.393 14.3698 186.351 13.9479 187.049 13.25C187.747 12.5521 188.096 11.6354 188.096 10.5C188.096 9.40625 187.794 8.52083 187.19 7.84375C186.596 7.15625 185.705 6.73958 184.518 6.59375C183.809 6.51042 181.778 6.46875 178.424 6.46875H174.33ZM174.33 20.5156V29.9531H180.924C183.497 29.9531 185.127 29.8802 185.815 29.7344C186.877 29.5469 187.736 29.0833 188.393 28.3438C189.059 27.5938 189.393 26.5885 189.393 25.3281C189.393 24.276 189.137 23.3802 188.627 22.6406C188.117 21.901 187.372 21.3646 186.393 21.0312C185.424 20.6875 183.32 20.5156 180.08 20.5156H174.33ZM202.703 35.9062V0.59375H213.36L219.766 24.6875L226.11 0.59375H236.797V35.9062H230.172V8.10938L223.172 35.9062H216.297L209.313 8.10938V35.9062H202.703Z" fill="#354A60"/>
<path d="M0 45.5156H238.488" stroke="#999999" stroke-miterlimit="10" stroke-linejoin="round"/>
<path d="M0 60.7969L1.65625 60.6562C1.73958 61.3229 1.92188 61.8698 2.20312 62.2969C2.49479 62.724 2.94271 63.0729 3.54688 63.3438C4.16146 63.6042 4.84896 63.7344 5.60938 63.7344C6.27604 63.7344 6.86979 63.6354 7.39062 63.4375C7.91146 63.2396 8.29688 62.9688 8.54688 62.625C8.79688 62.2708 8.92188 61.8854 8.92188 61.4688C8.92188 61.0521 8.79688 60.6875 8.54688 60.375C8.30729 60.0625 7.91146 59.7969 7.35938 59.5781C6.99479 59.4427 6.19792 59.2292 4.96875 58.9375C3.75 58.6354 2.89583 58.3542 2.40625 58.0938C1.76042 57.7604 1.28125 57.349 0.96875 56.8594C0.65625 56.3594 0.5 55.8021 0.5 55.1875C0.5 54.5208 0.692708 53.8958 1.07812 53.3125C1.46354 52.7188 2.02083 52.2708 2.75 51.9688C3.48958 51.6667 4.30729 51.5156 5.20312 51.5156C6.19271 51.5156 7.0625 51.6771 7.8125 52C8.57292 52.3125 9.15625 52.7812 9.5625 53.4062C9.96875 54.0208 10.1875 54.7188 10.2188 55.5L8.53125 55.625C8.4375 54.7812 8.125 54.1458 7.59375 53.7188C7.07292 53.2812 6.30208 53.0625 5.28125 53.0625C4.20833 53.0625 3.42708 53.2604 2.9375 53.6562C2.44792 54.0521 2.20312 54.526 2.20312 55.0781C2.20312 55.5573 2.38021 55.9479 2.73438 56.25C3.06771 56.5625 3.95312 56.8854 5.39062 57.2188C6.82812 57.5417 7.8125 57.8229 8.34375 58.0625C9.125 58.4167 9.69792 58.8698 10.0625 59.4219C10.4375 59.974 10.625 60.6094 10.625 61.3281C10.625 62.0365 10.4219 62.7083 10.0156 63.3438C9.60938 63.9688 9.02604 64.4583 8.26562 64.8125C7.50521 65.1562 6.64583 65.3281 5.6875 65.3281C4.47917 65.3281 3.46354 65.151 2.64062 64.7969C1.82812 64.4427 1.1875 63.9115 0.71875 63.2031C0.260417 62.4948 0.0208333 61.6927 0 60.7969ZM12.8342 65.0938V55.4219H14.3029V56.7812C14.605 56.3021 15.0061 55.9219 15.5061 55.6406C16.0165 55.349 16.5894 55.2031 17.2248 55.2031C17.9436 55.2031 18.5321 55.3542 18.9904 55.6562C19.4488 55.9479 19.7717 56.3594 19.9592 56.8906C20.73 55.7656 21.7248 55.2031 22.9436 55.2031C23.9123 55.2031 24.6519 55.4688 25.1623 56C25.6832 56.5312 25.9436 57.349 25.9436 58.4531V65.0938H24.3029V59C24.3029 58.3438 24.2509 57.875 24.1467 57.5938C24.0425 57.3021 23.8498 57.0677 23.5686 56.8906C23.2873 56.7135 22.9592 56.625 22.5842 56.625C21.9071 56.625 21.3446 56.8542 20.8967 57.3125C20.4488 57.7604 20.2248 58.4792 20.2248 59.4688V65.0938H18.5842V58.8125C18.5842 58.0833 18.4488 57.5365 18.1779 57.1719C17.9071 56.8073 17.4696 56.625 16.8654 56.625C16.4071 56.625 15.98 56.7448 15.5842 56.9844C15.1884 57.224 14.9019 57.5781 14.7248 58.0469C14.5582 58.5156 14.4748 59.1927 14.4748 60.0781V65.0938H12.8342ZM34.6875 63.9062C34.0729 64.4167 33.4844 64.7812 32.9219 65C32.3698 65.2083 31.7708 65.3125 31.125 65.3125C30.0625 65.3125 29.2448 65.0521 28.6719 64.5312C28.099 64.0104 27.8125 63.349 27.8125 62.5469C27.8125 62.0677 27.9219 61.6354 28.1406 61.25C28.3594 60.8542 28.6406 60.5417 28.9844 60.3125C29.3385 60.0729 29.7344 59.8906 30.1719 59.7656C30.4844 59.6823 30.9688 59.599 31.625 59.5156C32.9479 59.3594 33.9219 59.1719 34.5469 58.9531C34.5573 58.724 34.5625 58.5833 34.5625 58.5312C34.5625 57.8646 34.4062 57.3906 34.0938 57.1094C33.6771 56.7448 33.0521 56.5625 32.2188 56.5625C31.4479 56.5625 30.8802 56.6979 30.5156 56.9688C30.151 57.2396 29.8802 57.7135 29.7031 58.3906L28.0938 58.1719C28.2396 57.4948 28.4792 56.9479 28.8125 56.5312C29.1458 56.1042 29.6302 55.776 30.2656 55.5469C30.901 55.3177 31.6302 55.2031 32.4531 55.2031C33.2865 55.2031 33.9583 55.3021 34.4688 55.5C34.9896 55.6875 35.3698 55.9323 35.6094 56.2344C35.8594 56.526 36.0312 56.8958 36.125 57.3438C36.1771 57.625 36.2031 58.1302 36.2031 58.8594V61.0469C36.2031 62.5677 36.2396 63.5312 36.3125 63.9375C36.3854 64.3333 36.5208 64.7188 36.7188 65.0938H35.0156C34.8385 64.75 34.7292 64.3542 34.6875 63.9062ZM34.5469 60.2344C33.9531 60.4844 33.0625 60.6927 31.875 60.8594C31.1979 60.9531 30.7188 61.0625 30.4375 61.1875C30.1562 61.3125 29.9375 61.4896 29.7812 61.7188C29.6354 61.9479 29.5625 62.2083 29.5625 62.5C29.5625 62.9375 29.7292 63.3021 30.0625 63.5938C30.3958 63.8854 30.8802 64.0312 31.5156 64.0312C32.1406 64.0312 32.6979 63.8958 33.1875 63.625C33.6875 63.3438 34.0521 62.9635 34.2812 62.4844C34.4583 62.1094 34.5469 61.5625 34.5469 60.8438V60.2344ZM38.7351 65.0938V55.4219H40.2038V56.8906C40.5788 56.2031 40.9226 55.75 41.2351 55.5312C41.558 55.3125 41.9122 55.2031 42.2976 55.2031C42.8497 55.2031 43.4122 55.3802 43.9851 55.7344L43.4226 57.25C43.0163 57.0104 42.6153 56.8906 42.2195 56.8906C41.8549 56.8906 41.532 57 41.2507 57.2188C40.9695 57.4375 40.7663 57.7344 40.6413 58.1094C40.4538 58.6927 40.3601 59.3333 40.3601 60.0312V65.0938H38.7351ZM48.5415 63.625L48.7759 65.0781C48.3175 65.1719 47.9061 65.2188 47.5415 65.2188C46.9478 65.2188 46.4842 65.125 46.1509 64.9375C45.828 64.75 45.5988 64.5052 45.4634 64.2031C45.328 63.8906 45.2603 63.2448 45.2603 62.2656V56.6875H44.0571V55.4219H45.2603V53.0312L46.8853 52.0469V55.4219H48.5415V56.6875H46.8853V62.3594C46.8853 62.8177 46.9113 63.1146 46.9634 63.25C47.0259 63.3854 47.1196 63.4948 47.2446 63.5781C47.38 63.651 47.5728 63.6875 47.8228 63.6875C47.9998 63.6875 48.2394 63.6667 48.5415 63.625ZM56.7717 61.9844L58.4592 62.1875C58.1884 63.1771 57.6936 63.9479 56.9748 64.5C56.2561 65.0417 55.3342 65.3125 54.2092 65.3125C52.7925 65.3125 51.6675 64.8802 50.8342 64.0156C50.0113 63.1406 49.5998 61.9167 49.5998 60.3438C49.5998 58.7083 50.0165 57.4427 50.8498 56.5469C51.6936 55.651 52.7821 55.2031 54.1154 55.2031C55.4071 55.2031 56.4592 55.6458 57.2717 56.5312C58.0946 57.4062 58.5061 58.6406 58.5061 60.2344C58.5061 60.3385 58.5061 60.4844 58.5061 60.6719H51.2873C51.3498 61.7344 51.6519 62.5521 52.1936 63.125C52.7352 63.6875 53.4071 63.9688 54.2092 63.9688C54.8134 63.9688 55.329 63.8125 55.7561 63.5C56.1832 63.1771 56.5217 62.6719 56.7717 61.9844ZM51.3811 59.3281H56.7873C56.7144 58.5156 56.5061 57.9062 56.1623 57.5C55.6415 56.8646 54.9644 56.5469 54.1311 56.5469C53.3811 56.5469 52.7457 56.8021 52.2248 57.3125C51.7144 57.8125 51.4332 58.4844 51.3811 59.3281ZM60.5068 65.0938V55.4219H61.9755V56.8906C62.3505 56.2031 62.6943 55.75 63.0068 55.5312C63.3297 55.3125 63.6839 55.2031 64.0693 55.2031C64.6214 55.2031 65.1839 55.3802 65.7568 55.7344L65.1943 57.25C64.788 57.0104 64.387 56.8906 63.9911 56.8906C63.6266 56.8906 63.3036 57 63.0224 57.2188C62.7411 57.4375 62.538 57.7344 62.413 58.1094C62.2255 58.6927 62.1318 59.3333 62.1318 60.0312V65.0938H60.5068ZM81.6528 60.4062L83.4184 60.8594C83.0434 62.3073 82.3767 63.4167 81.4184 64.1875C80.4601 64.9479 79.283 65.3281 77.8871 65.3281C76.4496 65.3281 75.2778 65.0365 74.3715 64.4531C73.4757 63.8594 72.7882 63.0104 72.309 61.9062C71.8403 60.7917 71.6059 59.5938 71.6059 58.3125C71.6059 56.9271 71.8715 55.7188 72.4028 54.6875C72.934 53.6458 73.6892 52.8594 74.6684 52.3281C75.658 51.7865 76.7413 51.5156 77.9184 51.5156C79.2517 51.5156 80.3715 51.8542 81.2778 52.5312C82.1944 53.2083 82.8299 54.1667 83.184 55.4062L81.4496 55.8125C81.1371 54.8438 80.684 54.1406 80.0903 53.7031C79.5069 53.2552 78.7726 53.0312 77.8871 53.0312C76.8559 53.0312 75.9965 53.276 75.309 53.7656C74.6215 54.2552 74.1371 54.9167 73.8559 55.75C73.5746 56.5729 73.434 57.4271 73.434 58.3125C73.434 59.4479 73.6007 60.4375 73.934 61.2812C74.2674 62.125 74.783 62.7604 75.4809 63.1875C76.1788 63.6042 76.934 63.8125 77.7465 63.8125C78.7361 63.8125 79.5746 63.526 80.2621 62.9531C80.9496 62.3802 81.4132 61.5312 81.6528 60.4062ZM84.782 60.25C84.782 58.4583 85.2767 57.1354 86.2663 56.2812C87.0997 55.5625 88.1153 55.2031 89.3132 55.2031C90.6465 55.2031 91.7351 55.6406 92.5788 56.5156C93.4226 57.3802 93.8445 58.5833 93.8445 60.125C93.8445 61.3646 93.657 62.3438 93.282 63.0625C92.907 63.7708 92.3601 64.3229 91.6413 64.7188C90.933 65.1146 90.157 65.3125 89.3132 65.3125C87.959 65.3125 86.8653 64.8802 86.032 64.0156C85.1986 63.1406 84.782 61.8854 84.782 60.25ZM86.4695 60.25C86.4695 61.4896 86.7351 62.4219 87.2663 63.0469C87.808 63.6615 88.4903 63.9688 89.3132 63.9688C90.1257 63.9688 90.8028 63.6615 91.3445 63.0469C91.8861 62.4219 92.157 61.474 92.157 60.2031C92.157 59.0052 91.8861 58.099 91.3445 57.4844C90.8028 56.8698 90.1257 56.5625 89.3132 56.5625C88.4903 56.5625 87.808 56.8698 87.2663 57.4844C86.7351 58.0885 86.4695 59.0104 86.4695 60.25ZM95.7671 65.0938V55.4219H97.2358V56.7969C97.9441 55.7344 98.9702 55.2031 100.314 55.2031C100.897 55.2031 101.434 55.3073 101.923 55.5156C102.413 55.724 102.777 56 103.017 56.3438C103.267 56.6771 103.439 57.0781 103.533 57.5469C103.595 57.849 103.626 58.3802 103.626 59.1406V65.0938H101.986V59.2031C101.986 58.5365 101.918 58.0417 101.783 57.7188C101.658 57.3854 101.434 57.1198 101.111 56.9219C100.788 56.724 100.408 56.625 99.9702 56.625C99.2723 56.625 98.6681 56.849 98.1577 57.2969C97.6577 57.7344 97.4077 58.5729 97.4077 59.8125V65.0938H95.7671ZM112.408 65.0938V63.875C111.804 64.8333 110.903 65.3125 109.705 65.3125C108.934 65.3125 108.226 65.099 107.58 64.6719C106.934 64.2448 106.434 63.651 106.08 62.8906C105.726 62.1302 105.549 61.2552 105.549 60.2656C105.549 59.2969 105.71 58.4219 106.033 57.6406C106.356 56.849 106.835 56.2448 107.471 55.8281C108.117 55.4115 108.841 55.2031 109.643 55.2031C110.226 55.2031 110.742 55.3281 111.19 55.5781C111.648 55.8177 112.018 56.1354 112.299 56.5312V51.7344H113.94V65.0938H112.408ZM107.237 60.2656C107.237 61.5052 107.497 62.4323 108.018 63.0469C108.539 63.6615 109.153 63.9688 109.862 63.9688C110.58 63.9688 111.19 63.6771 111.69 63.0938C112.19 62.5 112.44 61.6042 112.44 60.4062C112.44 59.0833 112.184 58.1146 111.674 57.5C111.164 56.875 110.533 56.5625 109.783 56.5625C109.065 56.5625 108.46 56.8594 107.971 57.4531C107.481 58.0469 107.237 58.9844 107.237 60.2656ZM116.518 53.625V51.7344H118.159V53.625H116.518ZM116.518 65.0938V55.4219H118.159V65.0938H116.518ZM124.241 63.625L124.476 65.0781C124.017 65.1719 123.606 65.2188 123.241 65.2188C122.648 65.2188 122.184 65.125 121.851 64.9375C121.528 64.75 121.299 64.5052 121.163 64.2031C121.028 63.8906 120.96 63.2448 120.96 62.2656V56.6875H119.757V55.4219H120.96V53.0312L122.585 52.0469V55.4219H124.241V56.6875H122.585V62.3594C122.585 62.8177 122.611 63.1146 122.663 63.25C122.726 63.3854 122.82 63.4948 122.945 63.5781C123.08 63.651 123.273 63.6875 123.523 63.6875C123.7 63.6875 123.939 63.6667 124.241 63.625ZM125.847 53.625V51.7344H127.487V53.625H125.847ZM125.847 65.0938V55.4219H127.487V65.0938H125.847ZM129.382 60.25C129.382 58.4583 129.877 57.1354 130.866 56.2812C131.7 55.5625 132.715 55.2031 133.913 55.2031C135.247 55.2031 136.335 55.6406 137.179 56.5156C138.023 57.3802 138.445 58.5833 138.445 60.125C138.445 61.3646 138.257 62.3438 137.882 63.0625C137.507 63.7708 136.96 64.3229 136.241 64.7188C135.533 65.1146 134.757 65.3125 133.913 65.3125C132.559 65.3125 131.465 64.8802 130.632 64.0156C129.799 63.1406 129.382 61.8854 129.382 60.25ZM131.07 60.25C131.07 61.4896 131.335 62.4219 131.866 63.0469C132.408 63.6615 133.09 63.9688 133.913 63.9688C134.726 63.9688 135.403 63.6615 135.945 63.0469C136.486 62.4219 136.757 61.474 136.757 60.2031C136.757 59.0052 136.486 58.099 135.945 57.4844C135.403 56.8698 134.726 56.5625 133.913 56.5625C133.09 56.5625 132.408 56.8698 131.866 57.4844C131.335 58.0885 131.07 59.0104 131.07 60.25ZM140.367 65.0938V55.4219H141.836V56.7969C142.544 55.7344 143.57 55.2031 144.914 55.2031C145.497 55.2031 146.034 55.3073 146.523 55.5156C147.013 55.724 147.378 56 147.617 56.3438C147.867 56.6771 148.039 57.0781 148.133 57.5469C148.195 57.849 148.227 58.3802 148.227 59.1406V65.0938H146.586V59.2031C146.586 58.5365 146.518 58.0417 146.383 57.7188C146.258 57.3854 146.034 57.1198 145.711 56.9219C145.388 56.724 145.008 56.625 144.57 56.625C143.872 56.625 143.268 56.849 142.758 57.2969C142.258 57.7344 142.008 58.5729 142.008 59.8125V65.0938H140.367ZM156.082 65.0938V51.7344H158.739L161.895 61.1875C162.187 62.0729 162.4 62.7344 162.536 63.1719C162.692 62.6823 162.926 61.9688 163.239 61.0312L166.442 51.7344H168.817V65.0938H167.114V53.9219L163.239 65.0938H161.645L157.786 53.7188V65.0938H156.082ZM170.858 60.25C170.858 58.4583 171.352 57.1354 172.342 56.2812C173.175 55.5625 174.191 55.2031 175.389 55.2031C176.722 55.2031 177.811 55.6406 178.654 56.5156C179.498 57.3802 179.92 58.5833 179.92 60.125C179.92 61.3646 179.733 62.3438 179.358 63.0625C178.983 63.7708 178.436 64.3229 177.717 64.7188C177.009 65.1146 176.233 65.3125 175.389 65.3125C174.035 65.3125 172.941 64.8802 172.108 64.0156C171.274 63.1406 170.858 61.8854 170.858 60.25ZM172.545 60.25C172.545 61.4896 172.811 62.4219 173.342 63.0469C173.884 63.6615 174.566 63.9688 175.389 63.9688C176.201 63.9688 176.878 63.6615 177.42 63.0469C177.962 62.4219 178.233 61.474 178.233 60.2031C178.233 59.0052 177.962 58.099 177.42 57.4844C176.878 56.8698 176.201 56.5625 175.389 56.5625C174.566 56.5625 173.884 56.8698 173.342 57.4844C172.811 58.0885 172.545 59.0104 172.545 60.25ZM181.843 65.0938V55.4219H183.311V56.7969C184.02 55.7344 185.046 55.2031 186.39 55.2031C186.973 55.2031 187.509 55.3073 187.999 55.5156C188.489 55.724 188.853 56 189.093 56.3438C189.343 56.6771 189.515 57.0781 189.608 57.5469C189.671 57.849 189.702 58.3802 189.702 59.1406V65.0938H188.061V59.2031C188.061 58.5365 187.994 58.0417 187.858 57.7188C187.733 57.3854 187.509 57.1198 187.186 56.9219C186.864 56.724 186.483 56.625 186.046 56.625C185.348 56.625 184.744 56.849 184.233 57.2969C183.733 57.7344 183.483 58.5729 183.483 59.8125V65.0938H181.843ZM192.218 53.625V51.7344H193.859V53.625H192.218ZM192.218 65.0938V55.4219H193.859V65.0938H192.218ZM199.941 63.625L200.176 65.0781C199.717 65.1719 199.306 65.2188 198.941 65.2188C198.348 65.2188 197.884 65.125 197.551 64.9375C197.228 64.75 196.999 64.5052 196.863 64.2031C196.728 63.8906 196.66 63.2448 196.66 62.2656V56.6875H195.457V55.4219H196.66V53.0312L198.285 52.0469V55.4219H199.941V56.6875H198.285V62.3594C198.285 62.8177 198.311 63.1146 198.363 63.25C198.426 63.3854 198.519 63.4948 198.644 63.5781C198.78 63.651 198.973 63.6875 199.223 63.6875C199.4 63.6875 199.639 63.6667 199.941 63.625ZM200.937 60.25C200.937 58.4583 201.432 57.1354 202.422 56.2812C203.255 55.5625 204.27 55.2031 205.468 55.2031C206.802 55.2031 207.89 55.6406 208.734 56.5156C209.578 57.3802 210 58.5833 210 60.125C210 61.3646 209.812 62.3438 209.437 63.0625C209.062 63.7708 208.515 64.3229 207.797 64.7188C207.088 65.1146 206.312 65.3125 205.468 65.3125C204.114 65.3125 203.02 64.8802 202.187 64.0156C201.354 63.1406 200.937 61.8854 200.937 60.25ZM202.625 60.25C202.625 61.4896 202.89 62.4219 203.422 63.0469C203.963 63.6615 204.645 63.9688 205.468 63.9688C206.281 63.9688 206.958 63.6615 207.5 63.0469C208.041 62.4219 208.312 61.474 208.312 60.2031C208.312 59.0052 208.041 58.099 207.5 57.4844C206.958 56.8698 206.281 56.5625 205.468 56.5625C204.645 56.5625 203.963 56.8698 203.422 57.4844C202.89 58.0885 202.625 59.0104 202.625 60.25ZM211.907 65.0938V55.4219H213.375V56.8906C213.75 56.2031 214.094 55.75 214.407 55.5312C214.73 55.3125 215.084 55.2031 215.469 55.2031C216.021 55.2031 216.584 55.3802 217.157 55.7344L216.594 57.25C216.188 57.0104 215.787 56.8906 215.391 56.8906C215.026 56.8906 214.703 57 214.422 57.2188C214.141 57.4375 213.938 57.7344 213.813 58.1094C213.625 58.6927 213.532 59.3333 213.532 60.0312V65.0938H211.907ZM218.135 53.625V51.7344H219.776V53.625H218.135ZM218.135 65.0938V55.4219H219.776V65.0938H218.135ZM222.28 65.0938V55.4219H223.748V56.7969C224.457 55.7344 225.483 55.2031 226.827 55.2031C227.41 55.2031 227.946 55.3073 228.436 55.5156C228.926 55.724 229.29 56 229.53 56.3438C229.78 56.6771 229.952 57.0781 230.045 57.5469C230.108 57.849 230.139 58.3802 230.139 59.1406V65.0938H228.498V59.2031C228.498 58.5365 228.431 58.0417 228.295 57.7188C228.17 57.3854 227.946 57.1198 227.623 56.9219C227.301 56.724 226.92 56.625 226.483 56.625C225.785 56.625 225.181 56.849 224.67 57.2969C224.17 57.7344 223.92 58.5729 223.92 59.8125V65.0938H222.28ZM232.343 65.8906L233.937 66.125C234.01 66.625 234.197 66.9844 234.499 67.2031C234.905 67.5052 235.463 67.6562 236.171 67.6562C236.932 67.6562 237.515 67.5052 237.921 67.2031C238.338 66.901 238.619 66.4792 238.765 65.9375C238.848 65.6042 238.885 64.901 238.874 63.8281C238.166 64.6719 237.275 65.0938 236.202 65.0938C234.869 65.0938 233.838 64.6146 233.109 63.6562C232.379 62.6979 232.015 61.5469 232.015 60.2031C232.015 59.276 232.182 58.4219 232.515 57.6406C232.859 56.8594 233.343 56.2604 233.968 55.8438C234.603 55.4167 235.353 55.2031 236.218 55.2031C237.353 55.2031 238.291 55.6615 239.03 56.5781V55.4219H240.546V63.7812C240.546 65.2917 240.39 66.3594 240.077 66.9844C239.775 67.6094 239.291 68.1042 238.624 68.4688C237.968 68.8333 237.15 69.0156 236.171 69.0156C235.025 69.0156 234.093 68.7552 233.374 68.2344C232.666 67.724 232.322 66.9427 232.343 65.8906ZM233.702 60.0781C233.702 61.349 233.952 62.276 234.452 62.8594C234.963 63.4427 235.598 63.7344 236.359 63.7344C237.109 63.7344 237.739 63.4479 238.249 62.875C238.76 62.2917 239.015 61.3802 239.015 60.1406C239.015 58.9531 238.749 58.0625 238.218 57.4688C237.697 56.8646 237.067 56.5625 236.327 56.5625C235.598 56.5625 234.978 56.8594 234.468 57.4531C233.958 58.0365 233.702 58.9115 233.702 60.0781Z" fill="#FF9900"/>
</svg>
