<svg width="48" height="48" viewBox="0 0 48 48" fill="none" xmlns="http://www.w3.org/2000/svg">
<path d="M37.5 36V38C37.5 39.93 35.93 41.5 34 41.5H22C21.172 41.5 20.5 40.828 20.5 40C20.5 39.172 21.172 38.5 22 38.5H34C34.276 38.5 34.5 38.276 34.5 38V36C34.5 35.172 35.172 34.5 36 34.5C36.828 34.5 37.5 35.172 37.5 36ZM34 6.5H22C21.172 6.5 20.5 7.172 20.5 8C20.5 8.828 21.172 9.5 22 9.5H34C34.276 9.5 34.5 9.724 34.5 10V12C34.5 12.828 35.172 13.5 36 13.5C36.828 13.5 37.5 12.828 37.5 12V10C37.5 8.07 35.93 6.5 34 6.5ZM43.06 22.94L37.06 16.94C36.474 16.354 35.524 16.354 34.938 16.94C34.352 17.526 34.352 18.476 34.938 19.062L38.378 22.502H28C27.172 22.502 26.5 23.174 26.5 24.002C26.5 24.83 27.172 25.502 28 25.502H38.378L34.938 28.942C34.352 29.528 34.352 30.478 34.938 31.064C35.23 31.356 35.614 31.504 35.998 31.504C36.382 31.504 36.766 31.358 37.058 31.064L43.058 25.064C43.644 24.478 43.644 23.528 43.058 22.942L43.06 22.94Z" fill="#5495D4"/>
<path d="M22.156 5.80473C21.3 5.13673 20.212 4.90273 19.152 5.16673L7.15201 8.16673C5.59201 8.55673 4.50201 9.95473 4.50201 11.5627V36.4387C4.50201 38.0487 5.59201 39.4447 7.15201 39.8347L19.154 42.8347C19.438 42.9047 19.724 42.9407 20.008 42.9407C20.78 42.9407 21.532 42.6847 22.156 42.1967C23.01 41.5287 23.5 40.5247 23.5 39.4387V8.56273C23.5 7.47673 23.01 6.47273 22.156 5.80473Z" fill="#E6F0F9"/>
</svg>
